G04 (created by PCBNEW (2013-02-14 BZR 3950)-testing) date Tuesday, 2013 April 23 13:38:50*
%MOIN*%
G04 Gerber Fmt 3.4, Leading zero omitted, Abs format*
%FSLAX34Y34*%
G01*
G70*
G90*
G04 APERTURE LIST*
%ADD10C,0.005*%
%ADD11C,0.0059*%
%ADD12C,0.0078*%
%ADD13C,0.0118*%
G04 APERTURE END LIST*
G54D10*
G54D11*
X97500Y-33500D02*
X104750Y-33500D01*
X97500Y-42750D02*
X104750Y-42750D01*
X96000Y-42500D02*
X97500Y-42750D01*
X94500Y-41750D02*
X96000Y-42500D01*
X95750Y-33750D02*
X97500Y-33500D01*
X94500Y-34500D02*
X95750Y-33750D01*
X104750Y-42750D02*
X104750Y-42250D01*
X104500Y-42750D02*
X104750Y-42750D01*
X104750Y-42250D02*
X104750Y-33500D01*
X93500Y-40250D02*
X94500Y-41750D01*
X93500Y-35750D02*
X94500Y-34500D01*
X92250Y-40000D02*
X93500Y-40250D01*
X92250Y-36000D02*
X93500Y-35750D01*
X92000Y-40000D02*
X92250Y-40000D01*
X49500Y-38000D02*
X52250Y-39750D01*
X52250Y-36250D02*
X49500Y-38000D01*
X53250Y-36000D02*
X52250Y-36250D01*
X53250Y-40000D02*
X52250Y-39750D01*
X54250Y-40000D02*
X53250Y-40000D01*
X54250Y-36000D02*
X53250Y-36000D01*
X54250Y-40000D02*
X55000Y-40000D01*
X54250Y-36000D02*
X55000Y-36000D01*
X92000Y-40000D02*
X55000Y-40000D01*
X92250Y-36000D02*
X55000Y-36000D01*
G54D12*
X94520Y-35220D02*
X94680Y-35380D01*
X94680Y-35220D02*
X94520Y-35380D01*
X94720Y-40220D02*
X94880Y-40380D01*
X94880Y-40220D02*
X94720Y-40380D01*
X94720Y-40720D02*
X94880Y-40880D01*
X94880Y-40720D02*
X94720Y-40880D01*
X94920Y-34720D02*
X95080Y-34880D01*
X95080Y-34720D02*
X94920Y-34880D01*
X94920Y-35220D02*
X95080Y-35380D01*
X95080Y-35220D02*
X94920Y-35380D01*
X95220Y-34420D02*
X95380Y-34580D01*
X95380Y-34420D02*
X95220Y-34580D01*
X95220Y-40920D02*
X95380Y-41080D01*
X95380Y-40920D02*
X95220Y-41080D01*
X95620Y-34020D02*
X95780Y-34180D01*
X95780Y-34020D02*
X95620Y-34180D01*
X95620Y-35020D02*
X95780Y-35180D01*
X95780Y-35020D02*
X95620Y-35180D01*
X95720Y-41120D02*
X95880Y-41280D01*
X95880Y-41120D02*
X95720Y-41280D01*
X96370Y-40470D02*
X96530Y-40630D01*
X96530Y-40470D02*
X96370Y-40630D01*
X96520Y-33920D02*
X96680Y-34080D01*
X96680Y-33920D02*
X96520Y-34080D01*
X97020Y-37420D02*
X97180Y-37580D01*
X97180Y-37420D02*
X97020Y-37580D01*
X97020Y-38120D02*
X97180Y-38280D01*
X97180Y-38120D02*
X97020Y-38280D01*
X97120Y-33820D02*
X97280Y-33980D01*
X97280Y-33820D02*
X97120Y-33980D01*
X97820Y-36820D02*
X97980Y-36980D01*
X97980Y-36820D02*
X97820Y-36980D01*
X98120Y-38320D02*
X98280Y-38480D01*
X98280Y-38320D02*
X98120Y-38480D01*
X98120Y-40420D02*
X98280Y-40580D01*
X98280Y-40420D02*
X98120Y-40580D01*
X98420Y-33820D02*
X98580Y-33980D01*
X98580Y-33820D02*
X98420Y-33980D01*
X98520Y-36820D02*
X98680Y-36980D01*
X98680Y-36820D02*
X98520Y-36980D01*
X98920Y-40420D02*
X99080Y-40580D01*
X99080Y-40420D02*
X98920Y-40580D01*
X99120Y-33920D02*
X99280Y-34080D01*
X99280Y-33920D02*
X99120Y-34080D01*
X99220Y-35320D02*
X99380Y-35480D01*
X99380Y-35320D02*
X99220Y-35480D01*
X99220Y-36620D02*
X99380Y-36780D01*
X99380Y-36620D02*
X99220Y-36780D01*
X100020Y-33820D02*
X100180Y-33980D01*
X100180Y-33820D02*
X100020Y-33980D01*
X100020Y-35320D02*
X100180Y-35480D01*
X100180Y-35320D02*
X100020Y-35480D01*
X100420Y-36620D02*
X100580Y-36780D01*
X100580Y-36620D02*
X100420Y-36780D01*
X100820Y-35320D02*
X100980Y-35480D01*
X100980Y-35320D02*
X100820Y-35480D01*
X101020Y-33820D02*
X101180Y-33980D01*
X101180Y-33820D02*
X101020Y-33980D01*
X101120Y-36720D02*
X101280Y-36880D01*
X101280Y-36720D02*
X101120Y-36880D01*
X101120Y-37620D02*
X101280Y-37780D01*
X101280Y-37620D02*
X101120Y-37780D01*
X101520Y-34620D02*
X101680Y-34780D01*
X101680Y-34620D02*
X101520Y-34780D01*
X101920Y-33820D02*
X102080Y-33980D01*
X102080Y-33820D02*
X101920Y-33980D01*
X102020Y-38220D02*
X102180Y-38380D01*
X102180Y-38220D02*
X102020Y-38380D01*
X102320Y-40520D02*
X102480Y-40680D01*
X102480Y-40520D02*
X102320Y-40680D01*
X102420Y-37520D02*
X102580Y-37680D01*
X102580Y-37520D02*
X102420Y-37680D01*
X102820Y-38720D02*
X102980Y-38880D01*
X102980Y-38720D02*
X102820Y-38880D01*
X103720Y-35320D02*
X103880Y-35480D01*
X103880Y-35320D02*
X103720Y-35480D01*
X102700Y-34750D02*
G75*
G03X102700Y-34750I-200J0D01*
G74*
G01*
X102700Y-35750D02*
G75*
G03X102700Y-35750I-200J0D01*
G74*
G01*
X102700Y-36750D02*
G75*
G03X102700Y-36750I-200J0D01*
G74*
G01*
G54D13*
X50537Y-44558D02*
X50537Y-43377D01*
X50818Y-43377D01*
X50987Y-43433D01*
X51100Y-43545D01*
X51156Y-43658D01*
X51212Y-43883D01*
X51212Y-44051D01*
X51156Y-44276D01*
X51100Y-44389D01*
X50987Y-44501D01*
X50818Y-44558D01*
X50537Y-44558D01*
X51718Y-44558D02*
X51718Y-43770D01*
X51718Y-43995D02*
X51774Y-43883D01*
X51831Y-43826D01*
X51943Y-43770D01*
X52056Y-43770D01*
X52449Y-44558D02*
X52449Y-43770D01*
X52449Y-43377D02*
X52393Y-43433D01*
X52449Y-43489D01*
X52505Y-43433D01*
X52449Y-43377D01*
X52449Y-43489D01*
X53180Y-44558D02*
X53067Y-44501D01*
X53011Y-44389D01*
X53011Y-43377D01*
X53799Y-44558D02*
X53686Y-44501D01*
X53630Y-44389D01*
X53630Y-43377D01*
X55149Y-44558D02*
X55149Y-43377D01*
X55543Y-44220D01*
X55937Y-43377D01*
X55937Y-44558D01*
X57005Y-44558D02*
X57005Y-43939D01*
X56949Y-43826D01*
X56837Y-43770D01*
X56612Y-43770D01*
X56499Y-43826D01*
X57005Y-44501D02*
X56893Y-44558D01*
X56612Y-44558D01*
X56499Y-44501D01*
X56443Y-44389D01*
X56443Y-44276D01*
X56499Y-44164D01*
X56612Y-44108D01*
X56893Y-44108D01*
X57005Y-44051D01*
X57568Y-43770D02*
X57568Y-44951D01*
X57568Y-43826D02*
X57681Y-43770D01*
X57906Y-43770D01*
X58018Y-43826D01*
X58074Y-43883D01*
X58131Y-43995D01*
X58131Y-44333D01*
X58074Y-44445D01*
X58018Y-44501D01*
X57906Y-44558D01*
X57681Y-44558D01*
X57568Y-44501D01*
X58637Y-44445D02*
X58693Y-44501D01*
X58637Y-44558D01*
X58581Y-44501D01*
X58637Y-44445D01*
X58637Y-44558D01*
X58637Y-43826D02*
X58693Y-43883D01*
X58637Y-43939D01*
X58581Y-43883D01*
X58637Y-43826D01*
X58637Y-43939D01*
X49309Y-46480D02*
X49469Y-46640D01*
X49469Y-46480D02*
X49309Y-46640D01*
X50762Y-45857D02*
X50875Y-45857D01*
X50987Y-45913D01*
X51043Y-45969D01*
X51100Y-46081D01*
X51156Y-46306D01*
X51156Y-46588D01*
X51100Y-46813D01*
X51043Y-46925D01*
X50987Y-46981D01*
X50875Y-47038D01*
X50762Y-47038D01*
X50650Y-46981D01*
X50593Y-46925D01*
X50537Y-46813D01*
X50481Y-46588D01*
X50481Y-46306D01*
X50537Y-46081D01*
X50593Y-45969D01*
X50650Y-45913D01*
X50762Y-45857D01*
X51662Y-46925D02*
X51718Y-46981D01*
X51662Y-47038D01*
X51606Y-46981D01*
X51662Y-46925D01*
X51662Y-47038D01*
X52730Y-46250D02*
X52730Y-47038D01*
X52449Y-45800D02*
X52168Y-46644D01*
X52899Y-46644D01*
X53968Y-47038D02*
X53293Y-47038D01*
X53630Y-47038D02*
X53630Y-45857D01*
X53518Y-46025D01*
X53405Y-46138D01*
X53293Y-46194D01*
X54474Y-47038D02*
X54474Y-46250D01*
X54474Y-46363D02*
X54530Y-46306D01*
X54643Y-46250D01*
X54812Y-46250D01*
X54924Y-46306D01*
X54980Y-46419D01*
X54980Y-47038D01*
X54980Y-46419D02*
X55037Y-46306D01*
X55149Y-46250D01*
X55318Y-46250D01*
X55430Y-46306D01*
X55486Y-46419D01*
X55486Y-47038D01*
X56049Y-47038D02*
X56049Y-46250D01*
X56049Y-46363D02*
X56105Y-46306D01*
X56218Y-46250D01*
X56387Y-46250D01*
X56499Y-46306D01*
X56555Y-46419D01*
X56555Y-47038D01*
X56555Y-46419D02*
X56612Y-46306D01*
X56724Y-46250D01*
X56893Y-46250D01*
X57005Y-46306D01*
X57061Y-46419D01*
X57061Y-47038D01*
X59368Y-45800D02*
X58355Y-47319D01*
X60886Y-45857D02*
X60999Y-45857D01*
X61111Y-45913D01*
X61167Y-45969D01*
X61224Y-46081D01*
X61280Y-46306D01*
X61280Y-46588D01*
X61224Y-46813D01*
X61167Y-46925D01*
X61111Y-46981D01*
X60999Y-47038D01*
X60886Y-47038D01*
X60774Y-46981D01*
X60717Y-46925D01*
X60661Y-46813D01*
X60605Y-46588D01*
X60605Y-46306D01*
X60661Y-46081D01*
X60717Y-45969D01*
X60774Y-45913D01*
X60886Y-45857D01*
X61786Y-46925D02*
X61842Y-46981D01*
X61786Y-47038D01*
X61730Y-46981D01*
X61786Y-46925D01*
X61786Y-47038D01*
X62573Y-45857D02*
X62686Y-45857D01*
X62798Y-45913D01*
X62854Y-45969D01*
X62911Y-46081D01*
X62967Y-46306D01*
X62967Y-46588D01*
X62911Y-46813D01*
X62854Y-46925D01*
X62798Y-46981D01*
X62686Y-47038D01*
X62573Y-47038D01*
X62461Y-46981D01*
X62404Y-46925D01*
X62348Y-46813D01*
X62292Y-46588D01*
X62292Y-46306D01*
X62348Y-46081D01*
X62404Y-45969D01*
X62461Y-45913D01*
X62573Y-45857D01*
X64092Y-47038D02*
X63417Y-47038D01*
X63754Y-47038D02*
X63754Y-45857D01*
X63642Y-46025D01*
X63529Y-46138D01*
X63417Y-46194D01*
X65104Y-45857D02*
X64879Y-45857D01*
X64767Y-45913D01*
X64711Y-45969D01*
X64598Y-46138D01*
X64542Y-46363D01*
X64542Y-46813D01*
X64598Y-46925D01*
X64654Y-46981D01*
X64767Y-47038D01*
X64992Y-47038D01*
X65104Y-46981D01*
X65161Y-46925D01*
X65217Y-46813D01*
X65217Y-46531D01*
X65161Y-46419D01*
X65104Y-46363D01*
X64992Y-46306D01*
X64767Y-46306D01*
X64654Y-46363D01*
X64598Y-46419D01*
X64542Y-46531D01*
X65667Y-45857D02*
X65667Y-46081D01*
X66117Y-45857D02*
X66117Y-46081D01*
X67861Y-47487D02*
X67804Y-47431D01*
X67692Y-47262D01*
X67636Y-47150D01*
X67579Y-46981D01*
X67523Y-46700D01*
X67523Y-46475D01*
X67579Y-46194D01*
X67636Y-46025D01*
X67692Y-45913D01*
X67804Y-45744D01*
X67861Y-45688D01*
X68198Y-45857D02*
X68929Y-45857D01*
X68535Y-46306D01*
X68704Y-46306D01*
X68816Y-46363D01*
X68873Y-46419D01*
X68929Y-46531D01*
X68929Y-46813D01*
X68873Y-46925D01*
X68816Y-46981D01*
X68704Y-47038D01*
X68366Y-47038D01*
X68254Y-46981D01*
X68198Y-46925D01*
X69604Y-46363D02*
X69491Y-46306D01*
X69435Y-46250D01*
X69379Y-46138D01*
X69379Y-46081D01*
X69435Y-45969D01*
X69491Y-45913D01*
X69604Y-45857D01*
X69829Y-45857D01*
X69941Y-45913D01*
X69998Y-45969D01*
X70054Y-46081D01*
X70054Y-46138D01*
X69998Y-46250D01*
X69941Y-46306D01*
X69829Y-46363D01*
X69604Y-46363D01*
X69491Y-46419D01*
X69435Y-46475D01*
X69379Y-46588D01*
X69379Y-46813D01*
X69435Y-46925D01*
X69491Y-46981D01*
X69604Y-47038D01*
X69829Y-47038D01*
X69941Y-46981D01*
X69998Y-46925D01*
X70054Y-46813D01*
X70054Y-46588D01*
X69998Y-46475D01*
X69941Y-46419D01*
X69829Y-46363D01*
X71460Y-47038D02*
X71460Y-45857D01*
X71966Y-47038D02*
X71966Y-46419D01*
X71910Y-46306D01*
X71798Y-46250D01*
X71629Y-46250D01*
X71516Y-46306D01*
X71460Y-46363D01*
X72698Y-47038D02*
X72585Y-46981D01*
X72529Y-46925D01*
X72473Y-46813D01*
X72473Y-46475D01*
X72529Y-46363D01*
X72585Y-46306D01*
X72698Y-46250D01*
X72867Y-46250D01*
X72979Y-46306D01*
X73035Y-46363D01*
X73092Y-46475D01*
X73092Y-46813D01*
X73035Y-46925D01*
X72979Y-46981D01*
X72867Y-47038D01*
X72698Y-47038D01*
X73767Y-47038D02*
X73654Y-46981D01*
X73598Y-46869D01*
X73598Y-45857D01*
X74667Y-46981D02*
X74555Y-47038D01*
X74330Y-47038D01*
X74217Y-46981D01*
X74161Y-46869D01*
X74161Y-46419D01*
X74217Y-46306D01*
X74330Y-46250D01*
X74555Y-46250D01*
X74667Y-46306D01*
X74723Y-46419D01*
X74723Y-46531D01*
X74161Y-46644D01*
X75173Y-46981D02*
X75285Y-47038D01*
X75510Y-47038D01*
X75623Y-46981D01*
X75679Y-46869D01*
X75679Y-46813D01*
X75623Y-46700D01*
X75510Y-46644D01*
X75342Y-46644D01*
X75229Y-46588D01*
X75173Y-46475D01*
X75173Y-46419D01*
X75229Y-46306D01*
X75342Y-46250D01*
X75510Y-46250D01*
X75623Y-46306D01*
X76073Y-47487D02*
X76129Y-47431D01*
X76241Y-47262D01*
X76298Y-47150D01*
X76354Y-46981D01*
X76410Y-46700D01*
X76410Y-46475D01*
X76354Y-46194D01*
X76298Y-46025D01*
X76241Y-45913D01*
X76129Y-45744D01*
X76073Y-45688D01*
G54D12*
X49469Y-48118D02*
G75*
G03X49469Y-48118I-200J0D01*
G74*
G01*
G54D13*
X51156Y-48596D02*
X50481Y-48596D01*
X50818Y-48596D02*
X50818Y-47415D01*
X50706Y-47583D01*
X50593Y-47696D01*
X50481Y-47752D01*
X51662Y-48483D02*
X51718Y-48539D01*
X51662Y-48596D01*
X51606Y-48539D01*
X51662Y-48483D01*
X51662Y-48596D01*
X52449Y-47415D02*
X52562Y-47415D01*
X52674Y-47471D01*
X52730Y-47527D01*
X52787Y-47639D01*
X52843Y-47864D01*
X52843Y-48146D01*
X52787Y-48371D01*
X52730Y-48483D01*
X52674Y-48539D01*
X52562Y-48596D01*
X52449Y-48596D01*
X52337Y-48539D01*
X52280Y-48483D01*
X52224Y-48371D01*
X52168Y-48146D01*
X52168Y-47864D01*
X52224Y-47639D01*
X52280Y-47527D01*
X52337Y-47471D01*
X52449Y-47415D01*
X53293Y-47527D02*
X53349Y-47471D01*
X53462Y-47415D01*
X53743Y-47415D01*
X53855Y-47471D01*
X53912Y-47527D01*
X53968Y-47639D01*
X53968Y-47752D01*
X53912Y-47921D01*
X53237Y-48596D01*
X53968Y-48596D01*
X54474Y-48596D02*
X54474Y-47808D01*
X54474Y-47921D02*
X54530Y-47864D01*
X54643Y-47808D01*
X54812Y-47808D01*
X54924Y-47864D01*
X54980Y-47977D01*
X54980Y-48596D01*
X54980Y-47977D02*
X55037Y-47864D01*
X55149Y-47808D01*
X55318Y-47808D01*
X55430Y-47864D01*
X55486Y-47977D01*
X55486Y-48596D01*
X56049Y-48596D02*
X56049Y-47808D01*
X56049Y-47921D02*
X56105Y-47864D01*
X56218Y-47808D01*
X56387Y-47808D01*
X56499Y-47864D01*
X56555Y-47977D01*
X56555Y-48596D01*
X56555Y-47977D02*
X56612Y-47864D01*
X56724Y-47808D01*
X56893Y-47808D01*
X57005Y-47864D01*
X57061Y-47977D01*
X57061Y-48596D01*
X59368Y-47358D02*
X58355Y-48877D01*
X60886Y-47415D02*
X60999Y-47415D01*
X61111Y-47471D01*
X61167Y-47527D01*
X61224Y-47639D01*
X61280Y-47864D01*
X61280Y-48146D01*
X61224Y-48371D01*
X61167Y-48483D01*
X61111Y-48539D01*
X60999Y-48596D01*
X60886Y-48596D01*
X60774Y-48539D01*
X60717Y-48483D01*
X60661Y-48371D01*
X60605Y-48146D01*
X60605Y-47864D01*
X60661Y-47639D01*
X60717Y-47527D01*
X60774Y-47471D01*
X60886Y-47415D01*
X61786Y-48483D02*
X61842Y-48539D01*
X61786Y-48596D01*
X61730Y-48539D01*
X61786Y-48483D01*
X61786Y-48596D01*
X62573Y-47415D02*
X62686Y-47415D01*
X62798Y-47471D01*
X62854Y-47527D01*
X62911Y-47639D01*
X62967Y-47864D01*
X62967Y-48146D01*
X62911Y-48371D01*
X62854Y-48483D01*
X62798Y-48539D01*
X62686Y-48596D01*
X62573Y-48596D01*
X62461Y-48539D01*
X62404Y-48483D01*
X62348Y-48371D01*
X62292Y-48146D01*
X62292Y-47864D01*
X62348Y-47639D01*
X62404Y-47527D01*
X62461Y-47471D01*
X62573Y-47415D01*
X63979Y-47808D02*
X63979Y-48596D01*
X63698Y-47358D02*
X63417Y-48202D01*
X64148Y-48202D01*
X64823Y-47415D02*
X64936Y-47415D01*
X65048Y-47471D01*
X65104Y-47527D01*
X65161Y-47639D01*
X65217Y-47864D01*
X65217Y-48146D01*
X65161Y-48371D01*
X65104Y-48483D01*
X65048Y-48539D01*
X64936Y-48596D01*
X64823Y-48596D01*
X64711Y-48539D01*
X64654Y-48483D01*
X64598Y-48371D01*
X64542Y-48146D01*
X64542Y-47864D01*
X64598Y-47639D01*
X64654Y-47527D01*
X64711Y-47471D01*
X64823Y-47415D01*
X65667Y-47415D02*
X65667Y-47639D01*
X66117Y-47415D02*
X66117Y-47639D01*
X67861Y-49045D02*
X67804Y-48989D01*
X67692Y-48820D01*
X67636Y-48708D01*
X67579Y-48539D01*
X67523Y-48258D01*
X67523Y-48033D01*
X67579Y-47752D01*
X67636Y-47583D01*
X67692Y-47471D01*
X67804Y-47302D01*
X67861Y-47246D01*
X68198Y-47415D02*
X68929Y-47415D01*
X68535Y-47864D01*
X68704Y-47864D01*
X68816Y-47921D01*
X68873Y-47977D01*
X68929Y-48089D01*
X68929Y-48371D01*
X68873Y-48483D01*
X68816Y-48539D01*
X68704Y-48596D01*
X68366Y-48596D01*
X68254Y-48539D01*
X68198Y-48483D01*
X70335Y-48596D02*
X70335Y-47415D01*
X70841Y-48596D02*
X70841Y-47977D01*
X70785Y-47864D01*
X70673Y-47808D01*
X70504Y-47808D01*
X70391Y-47864D01*
X70335Y-47921D01*
X71573Y-48596D02*
X71460Y-48539D01*
X71404Y-48483D01*
X71348Y-48371D01*
X71348Y-48033D01*
X71404Y-47921D01*
X71460Y-47864D01*
X71573Y-47808D01*
X71742Y-47808D01*
X71854Y-47864D01*
X71910Y-47921D01*
X71967Y-48033D01*
X71967Y-48371D01*
X71910Y-48483D01*
X71854Y-48539D01*
X71742Y-48596D01*
X71573Y-48596D01*
X72642Y-48596D02*
X72529Y-48539D01*
X72473Y-48427D01*
X72473Y-47415D01*
X73542Y-48539D02*
X73430Y-48596D01*
X73205Y-48596D01*
X73092Y-48539D01*
X73036Y-48427D01*
X73036Y-47977D01*
X73092Y-47864D01*
X73205Y-47808D01*
X73430Y-47808D01*
X73542Y-47864D01*
X73598Y-47977D01*
X73598Y-48089D01*
X73036Y-48202D01*
X74048Y-48539D02*
X74160Y-48596D01*
X74385Y-48596D01*
X74498Y-48539D01*
X74554Y-48427D01*
X74554Y-48371D01*
X74498Y-48258D01*
X74385Y-48202D01*
X74217Y-48202D01*
X74104Y-48146D01*
X74048Y-48033D01*
X74048Y-47977D01*
X74104Y-47864D01*
X74217Y-47808D01*
X74385Y-47808D01*
X74498Y-47864D01*
X74948Y-49045D02*
X75004Y-48989D01*
X75116Y-48820D01*
X75173Y-48708D01*
X75229Y-48539D01*
X75285Y-48258D01*
X75285Y-48033D01*
X75229Y-47752D01*
X75173Y-47583D01*
X75116Y-47471D01*
X75004Y-47302D01*
X74948Y-47246D01*
M02*
