G04 (created by PCBNEW (2013-02-14 BZR 3950)-testing) date Tuesday, 2013 April 23 20:25:31*
%MOIN*%
G04 Gerber Fmt 3.4, Leading zero omitted, Abs format*
%FSLAX34Y34*%
G01*
G70*
G90*
G04 APERTURE LIST*
%ADD10C,0.006*%
%ADD11C,0.0059*%
G04 APERTURE END LIST*
G54D10*
G54D11*
X71900Y-34900D02*
X79150Y-34900D01*
X71900Y-44150D02*
X79150Y-44150D01*
X70400Y-43900D02*
X71900Y-44150D01*
X68900Y-43150D02*
X70400Y-43900D01*
X70150Y-35150D02*
X71900Y-34900D01*
X68900Y-35900D02*
X70150Y-35150D01*
X79150Y-44150D02*
X79150Y-43650D01*
X78900Y-44150D02*
X79150Y-44150D01*
X79150Y-43650D02*
X79150Y-34900D01*
X67900Y-41650D02*
X68900Y-43150D01*
X67900Y-37150D02*
X68900Y-35900D01*
X66650Y-41400D02*
X67900Y-41650D01*
X66650Y-37400D02*
X67900Y-37150D01*
X66400Y-41400D02*
X66650Y-41400D01*
X23900Y-39400D02*
X26650Y-41150D01*
X26650Y-37650D02*
X23900Y-39400D01*
X27650Y-37400D02*
X26650Y-37650D01*
X27650Y-41400D02*
X26650Y-41150D01*
X28650Y-41400D02*
X27650Y-41400D01*
X28650Y-37400D02*
X27650Y-37400D01*
X28650Y-41400D02*
X29400Y-41400D01*
X28650Y-37400D02*
X29400Y-37400D01*
X66400Y-41400D02*
X29400Y-41400D01*
X66650Y-37400D02*
X29400Y-37400D01*
M02*
