M48
;DRILL file {Pcbnew (2013-02-14 BZR 3950)-testing} date Tuesday, 2013 April 23 13:38:46
;FORMAT={-:-/ absolute / metric / decimal}
FMAT,2
METRIC,TZ
T1C0.406
T2C1.016
%
G90
G05
M71
T1
X240.284Y-89.662
X240.792Y-102.362
X240.792Y-103.632
X241.3Y-88.392
X241.3Y-89.662
X242.062Y-87.63
X242.062Y-104.14
X243.078Y-86.614
X243.078Y-89.154
X243.332Y-104.648
X244.983Y-102.997
X245.364Y-86.36
X246.634Y-95.25
X246.634Y-97.028
X246.888Y-86.106
X248.666Y-93.726
X249.428Y-97.536
X249.428Y-102.87
X250.19Y-86.106
X250.444Y-93.726
X251.46Y-102.87
X251.968Y-86.36
X252.222Y-89.916
X252.222Y-93.218
X254.254Y-86.106
X254.254Y-89.916
X255.27Y-93.218
X256.286Y-89.916
X256.794Y-86.106
X257.048Y-93.472
X257.048Y-95.758
X258.064Y-88.138
X259.08Y-86.106
X259.334Y-97.282
X260.096Y-103.124
X260.35Y-95.504
X261.366Y-98.552
X263.652Y-89.916
T2
X260.35Y-88.265
X260.35Y-90.805
X260.35Y-93.345
T0
M30
